<svg version="1.1" id="Layer_1" xmlns="http://www.w3.org/2000/svg" xmlns:xlink="http://www.w3.org/1999/xlink" x="0px" y="0px"
	 width="100%" viewBox="0 0 992 992" enable-background="new 0 0 992 992" xml:space="preserve">
<path fill="#000000" opacity="1.000000" stroke="none" 
	d="
M144.466248,759.151123 
	C161.715469,755.434143 178.616013,752.109863 195.629669,749.365540 
	C197.883865,749.001953 200.170181,748.250061 200.503601,745.208191 
	C202.266235,729.126831 210.958679,715.595947 216.854233,701.033691 
	C225.951553,678.562988 235.094131,656.110352 244.091812,633.599792 
	C252.662201,612.158264 260.867432,590.572327 268.029449,568.615417 
	C271.728455,557.275269 275.580597,545.957336 277.920837,533.884583 
	C267.234985,529.931641 256.226227,526.889587 245.635437,522.589355 
	C232.599243,517.296143 220.152512,510.980194 209.373810,502.021515 
	C202.086090,495.964355 198.307968,487.437347 198.789352,477.748352 
	C199.177734,469.931610 205.683105,465.828186 213.553925,467.176331 
	C222.690338,468.741272 230.782547,473.070465 239.327850,476.187592 
	C255.878143,482.224792 272.717682,486.932495 290.322296,488.737122 
	C298.902832,489.616699 307.450623,490.766083 316.095490,490.618530 
	C317.662781,490.591766 319.442657,491.253479 320.985962,489.500366 
	C318.563568,486.064545 315.059296,483.805939 311.678497,481.637756 
	C291.004944,468.379333 275.725555,450.210785 264.067322,428.939423 
	C256.060242,414.329834 252.267776,398.436279 251.590790,381.725586 
	C250.895401,364.560516 252.650604,347.920685 259.601379,331.992767 
	C266.715790,315.689758 275.953857,301.089355 291.450043,291.497284 
	C298.191589,287.324280 305.647919,284.511841 313.717957,286.019867 
	C325.398254,288.202545 331.987396,297.381714 332.342438,310.824860 
	C332.578827,319.777039 330.600281,328.319550 327.338257,336.535400 
	C323.951019,345.066681 324.889923,353.526581 327.351959,361.886078 
	C333.112000,381.443512 344.608307,397.168396 360.272827,410.019714 
	C366.792236,415.368225 372.409332,421.689545 379.884094,426.030243 
	C390.394775,432.134033 401.722443,435.695374 413.408966,438.134979 
	C434.670044,442.573303 456.127289,446.306946 477.928497,445.544006 
	C515.862427,444.216583 547.626526,429.988403 572.065735,400.035828 
	C596.496460,370.093567 610.042908,335.556396 616.341248,298.001770 
	C618.858582,282.991943 622.204956,268.009369 623.268127,252.855164 
	C624.114929,240.784576 625.394653,228.416382 622.138367,216.152206 
	C625.709229,220.123306 630.066284,224.009766 631.031921,229.136551 
	C634.707397,248.650391 639.306030,268.078705 638.376038,288.208801 
	C636.997009,318.061340 631.714661,347.071167 621.067932,375.093414 
	C612.953003,396.452148 602.940430,416.775513 590.148254,435.728760 
	C585.058655,443.269653 579.167664,450.200043 572.818787,458.489044 
	C582.788147,455.847229 591.574280,453.671997 600.271362,451.185242 
	C625.325073,444.021606 650.221802,436.358978 674.762451,427.561646 
	C678.913330,426.073608 681.143433,424.579712 680.913696,419.237122 
	C680.585632,411.607971 679.218933,404.026031 679.644470,396.368317 
	C679.816467,393.273773 678.259033,392.071442 675.388489,392.386292 
	C667.174438,393.287201 661.497620,389.693237 658.314575,382.338043 
	C656.152283,377.341705 652.370483,376.110779 647.495605,376.347717 
	C645.001648,376.468903 642.496277,376.408325 639.997314,376.362762 
	C637.725708,376.321350 635.111328,376.896179 634.084290,373.939423 
	C633.141418,371.224945 633.614380,368.643005 635.437378,366.428528 
	C639.436157,361.571106 644.173645,357.527985 650.441711,356.244385 
	C657.373535,354.824860 662.968628,351.699127 667.580444,346.295990 
	C670.363037,343.035889 673.441650,339.960693 677.113098,337.532166 
	C679.558228,335.914764 680.775391,325.783539 679.086304,323.536438 
	C678.296875,322.486176 677.116089,322.318115 675.933411,322.395630 
	C658.120483,323.562622 654.350037,305.154877 660.099731,293.754181 
	C663.684265,286.646423 667.598999,279.529541 674.715637,275.266998 
	C680.224365,271.967560 680.115601,267.129974 679.425171,261.886414 
	C678.022217,251.232101 676.909668,240.560730 677.624756,229.789978 
	C678.044434,223.468903 677.317444,222.833389 671.013123,224.254608 
	C662.593079,226.152802 654.122070,227.442474 645.441284,227.433243 
	C640.550781,227.428040 636.316528,226.044662 632.420776,223.249786 
	C627.914673,220.016953 627.493652,215.197083 630.999329,210.804047 
	C639.815247,199.756592 650.708801,191.869080 664.216125,187.384048 
	C677.946960,182.824829 691.577576,178.151505 706.343994,178.628632 
	C713.116638,178.847458 717.203918,181.551743 719.523010,187.897400 
	C723.877014,199.810593 725.116028,212.390747 727.332336,224.760056 
	C729.569641,237.246552 731.774414,249.738861 734.040955,262.496338 
	C738.887451,261.903351 742.537048,259.140442 746.473694,257.208344 
	C750.150879,255.403580 754.055664,254.566727 757.970642,254.261841 
	C766.512817,253.596634 772.326843,261.515015 770.116760,271.732147 
	C767.033020,285.988556 760.223328,297.416901 744.394409,300.648895 
	C741.008545,301.340271 738.722839,303.167816 739.301025,307.290405 
	C739.875488,311.385925 740.010803,315.541107 740.431641,319.660614 
	C740.844543,323.701385 742.985229,323.885864 746.376404,322.626892 
	C757.613525,318.454987 768.285706,313.268555 778.181152,306.452393 
	C783.145020,303.033173 788.970276,303.172455 794.606384,303.801880 
	C802.335571,304.665009 807.736206,312.301971 808.399353,321.513794 
	C809.425537,335.769592 804.340820,347.809509 796.128723,359.003815 
	C792.223633,364.327026 787.339844,368.392151 782.032043,372.184113 
	C776.557617,376.095154 770.452881,376.791321 764.095154,376.600159 
	C761.932617,376.535095 759.817566,376.297607 757.657776,376.781403 
	C747.693115,379.013367 746.979553,380.313934 750.344666,390.916656 
	C755.213684,390.583435 759.816711,388.461761 764.878967,388.568970 
	C777.260620,388.831268 786.535278,397.022888 788.370239,409.280762 
	C791.351807,429.197998 784.065002,445.948273 773.241394,461.911377 
	C763.701416,475.981323 749.571533,483.396973 734.631348,489.779083 
	C713.407471,498.845428 691.794067,506.865082 669.726868,513.655823 
	C642.981079,521.886292 616.130920,529.722168 588.792786,535.785461 
	C571.708435,539.574585 554.547119,542.891785 537.226440,545.472046 
	C517.730469,548.376343 498.126007,549.886902 478.509064,551.609863 
	C457.413879,553.462708 436.325378,553.836060 415.250549,553.182007 
	C399.887024,552.705139 384.518341,551.353088 369.189667,549.570312 
	C351.423004,547.503784 333.683289,545.378845 316.053131,542.366394 
	C314.267029,542.061218 312.496063,541.663086 310.706116,541.385254 
	C303.360870,540.245300 303.294250,540.256836 303.362671,547.498779 
	C303.570190,569.466614 300.984558,591.169800 297.577118,612.824951 
	C296.290314,621.002869 295.448883,629.251038 293.644897,637.347290 
	C293.449768,638.223145 293.608063,638.984253 294.633789,639.974060 
	C300.358307,637.553711 305.693726,633.913696 311.651581,631.473083 
	C326.038910,625.579163 340.959808,622.027954 356.233246,619.624512 
	C374.546478,616.742859 392.819031,613.579285 411.171417,610.976501 
	C426.086029,608.861267 441.088379,607.357605 456.059296,605.648315 
	C470.695740,603.977112 485.328247,602.254028 499.987030,600.800903 
	C515.484436,599.264771 531.002197,597.912170 546.526733,596.676697 
	C564.533447,595.243713 582.540649,593.651917 600.579712,592.849548 
	C612.025574,592.340454 623.413086,591.221558 634.838379,590.549683 
	C650.542419,589.626160 666.191284,587.747070 681.896973,586.877136 
	C689.185547,586.473389 696.471436,585.730713 703.773071,585.685608 
	C712.584290,585.631165 721.306030,584.738464 730.053589,583.810364 
	C743.259521,582.409241 754.158447,587.864014 755.560303,603.548462 
	C756.969421,619.315430 751.248047,632.448608 742.530640,644.715942 
	C739.587952,648.856812 735.723267,652.272339 731.903809,655.755920 
	C720.898438,665.793701 708.102356,665.125732 694.801270,663.635498 
	C686.413330,662.695618 678.075867,661.294128 669.560242,661.318604 
	C650.430847,661.373535 631.307617,660.539185 612.184753,660.146606 
	C592.931641,659.751282 573.688293,658.360168 554.406067,658.375366 
	C550.922180,658.378113 547.578796,656.994934 544.017395,657.361877 
	C539.569397,657.820129 538.130310,659.943359 540.494019,663.561951 
	C542.914917,667.267944 545.169067,671.011841 548.888733,673.914917 
	C557.693848,680.786987 559.639099,690.471008 558.717102,701.116211 
	C558.245605,706.560303 557.160767,711.892761 556.103333,716.970032 
	C557.460144,718.636902 559.000610,718.598755 560.486816,718.620300 
	C563.319397,718.661499 566.154785,718.708984 568.985779,718.633789 
	C595.126953,717.939636 621.258179,719.189087 647.358276,719.966125 
	C668.000977,720.580750 688.626221,720.636536 709.246399,720.528625 
	C733.038574,720.404114 756.845276,718.805969 780.622253,719.816284 
	C794.257385,720.395630 807.891846,720.146423 821.502197,720.795227 
	C839.537964,721.654968 857.454102,724.477905 875.535706,724.571899 
	C882.152832,724.606323 888.751648,723.179565 895.418884,723.641663 
	C900.546753,723.997009 905.754089,723.940308 910.780762,724.860413 
	C919.422852,726.442383 924.719116,732.104248 927.350220,740.336914 
	C931.062866,751.953857 929.497375,763.336060 925.382324,774.463562 
	C919.294800,790.924805 909.476990,804.655396 894.717102,814.468506 
	C885.644653,820.500244 875.805542,823.303650 864.879639,820.454834 
	C860.495483,819.311646 856.009644,819.312866 851.513428,819.367981 
	C833.700806,819.586060 816.227295,816.515564 798.690308,813.970642 
	C790.835999,812.830811 782.912964,812.132690 775.006348,811.391296 
	C754.626953,809.480408 734.173462,809.711243 713.746277,809.090637 
	C703.621155,808.783020 693.480530,808.408875 683.355164,808.444336 
	C662.400085,808.517761 641.507874,807.028381 620.588806,806.273743 
	C604.853210,805.706116 589.145081,804.370789 573.425537,803.364990 
	C555.061707,802.190002 536.730652,800.722412 518.315674,800.076477 
	C505.007874,799.609680 491.669800,800.309265 478.426331,799.252686 
	C456.958954,797.539856 435.494843,798.687683 414.033813,798.428772 
	C387.103088,798.103760 360.262054,800.659180 333.362091,801.510193 
	C318.299713,801.986633 303.256348,803.269043 288.224091,804.440979 
	C268.390747,805.987183 248.559555,807.474548 228.689651,808.534241 
	C213.805725,809.328125 198.964966,810.825195 184.056763,811.449951 
	C166.511459,812.185242 148.959457,813.104675 131.463623,814.577209 
	C114.753677,815.983582 98.097366,817.767883 81.284340,817.407288 
	C68.538124,817.133972 62.021271,806.279053 68.046906,794.899170 
	C72.530029,786.432373 79.860710,780.696228 88.238205,777.070801 
	C106.208420,769.294312 124.929924,763.558350 144.466248,759.151123 
M464.585480,719.628296 
	C469.584717,719.623169 474.588531,719.485291 479.581665,719.657532 
	C483.162903,719.781006 484.957947,718.584167 485.723206,714.819458 
	C487.406952,706.536621 489.658112,698.392883 492.424896,690.366028 
	C495.842133,680.452332 497.954559,670.221741 497.666138,659.617493 
	C497.600098,657.190613 497.307800,655.266968 494.206512,655.393616 
	C488.879608,655.611145 483.585510,654.498230 478.320618,654.500610 
	C443.231415,654.516357 408.144928,653.841919 373.065887,656.219360 
	C355.172699,657.432068 337.152344,658.313965 319.199005,657.227600 
	C311.839325,656.782227 304.391449,655.408203 297.531494,652.329773 
	C292.309418,649.986328 291.140778,650.490723 290.351135,656.292847 
	C290.195129,657.439209 289.994995,658.580994 289.772980,659.716675 
	C287.260681,672.568237 284.972900,685.469971 282.133881,698.249146 
	C280.452484,705.817627 282.553009,713.557373 280.371643,721.044373 
	C278.920349,726.025574 277.789551,731.100220 276.555695,735.973511 
	C278.771088,737.181946 280.494171,736.768921 282.077759,736.591492 
	C295.078369,735.135010 308.066040,733.608521 321.101959,732.433594 
	C334.943390,731.186035 348.697449,728.969238 362.538910,727.722046 
	C377.883331,726.339478 393.220581,724.814758 408.553070,723.357910 
	C426.888519,721.615906 445.284302,721.202332 464.585480,719.628296 
z"/>
</svg>